<svg class="svg-icon" style="width: 1em; height: 1em;vertical-align: middle;fill: currentColor;overflow: hidden;" viewBox="0 0 1024 1024" version="1.1" xmlns="http://www.w3.org/2000/svg"><path d="M115.712 348.16h860.672v427.52H115.712z" fill="#5E7A52" /><path d="M60.928 309.248H921.6v427.52H60.928z" fill="#649A76" /><path d="M13.824 244.736h860.672v427.52H13.824z" fill="#87C596" /><path d="M818.176 384c-54.784 0-99.328-43.008-101.888-97.28H162.304c-2.56 53.76-47.104 97.28-101.888 97.28v144.896c55.808 0 101.376 45.056 101.888 100.864h553.984c0.512-55.808 46.08-100.864 101.888-100.864 3.072 0 6.144 0 8.704 0.512v-145.92c-2.56 0.512-5.632 0.512-8.704 0.512z" fill="#FFFFFF" /><path d="M439.296 455.168m-148.992 0a148.992 148.992 0 1 0 297.984 0 148.992 148.992 0 1 0-297.984 0Z" fill="#87C596" /><path d="M436.224 465.92c-2.048-1.024-4.608-1.536-6.656-2.56-2.56-1.024-6.656-3.584-12.8-7.168s-10.752-7.68-14.848-12.288c-3.584-4.608-6.656-9.216-8.192-13.824-2.048-4.608-2.56-10.24-2.048-15.872 0.512-9.728 3.072-16.896 7.68-22.528 4.608-5.12 9.728-9.216 14.336-11.776s9.728-4.608 14.336-5.632l8.704-2.048v-7.68h10.752v8.192c3.072 0 5.12 0 7.168 0.512 2.048 0 4.096 0.512 6.656 1.024s7.168 1.536 13.312 3.584c6.144 2.048 11.776 5.12 15.872 10.24s6.144 9.216 6.144 13.312-2.048 8.192-5.632 11.264c-3.584 3.072-7.68 4.608-12.8 4.608s-8.704-1.536-12.288-4.608c-3.072-3.072-4.608-6.656-4.608-10.24s1.024-6.144 3.584-9.216c2.56-2.56 3.584-4.096 3.584-5.12 0-1.024-2.048-2.56-5.632-4.096-3.584-1.536-6.656-2.56-9.728-3.072l-6.656-0.512V440.32c5.12 2.048 10.752 4.096 17.408 6.656 6.144 2.048 12.288 4.608 17.408 7.168 5.12 2.56 10.24 6.656 14.336 12.288 4.608 5.632 6.656 11.264 6.656 17.92 0 6.144-1.024 11.776-2.56 17.408s-4.608 9.728-8.192 13.824-7.68 7.168-11.776 9.216c-4.096 2.048-8.704 3.584-13.312 5.12-4.608 1.024-9.216 2.048-13.824 2.56l-5.632 0.512v9.216h-10.752V532.48c-3.584-0.512-6.656-1.024-9.216-1.536-2.56-0.512-5.632-1.536-8.704-2.56-3.072-1.024-6.144-2.56-9.216-4.096s-5.632-3.072-8.704-5.12-5.632-5.12-8.704-8.704-4.096-7.168-4.608-11.264c0-3.584 0.512-7.168 1.536-9.728 1.536-3.072 3.072-5.12 5.632-6.656 2.56-1.536 5.632-2.56 9.216-2.56 4.096 0 7.68 1.024 10.24 3.072 2.56 2.048 4.096 4.608 4.608 7.168 0.512 2.56 0 4.608-0.512 6.144-0.512 1.536-1.536 2.56-2.56 3.072l-5.12 3.072c-1.024 1.024-2.048 2.048-3.072 3.584-0.512 1.536 1.024 4.096 4.608 7.68 2.56 2.56 5.632 4.608 8.704 6.144 3.072 1.536 5.632 2.56 7.68 2.56l7.68 1.536V465.92z m0-84.48c-2.56 0.512-4.608 1.024-7.168 2.048-2.56 0.512-4.608 2.048-7.168 4.096s-4.608 4.608-6.656 8.192c-2.048 3.584-3.072 7.68-2.56 12.288 0 6.144 1.536 11.264 5.12 14.848 3.072 3.584 7.68 7.168 12.8 9.728l6.144 3.072v-54.272z m10.752 143.872c3.584-0.512 8.192-1.536 12.8-2.56 5.12-1.024 9.216-4.096 12.8-8.704 3.072-4.608 5.12-9.728 5.12-14.848 0-5.632-1.024-9.728-3.072-12.8s-5.632-5.632-9.216-7.68-8.192-4.096-11.776-5.632l-6.144-2.56v54.784z" fill="#FFFFFF" /></svg>